<svg width="16" height="16" viewBox="0 0 512 512" fill="none" xmlns="http://www.w3.org/2000/svg">
      <circle cx="256" cy="256" r="256" fill="#10B981"/>
      <circle cx="256" cy="256" r="200" fill="#059669" opacity="0.8"/>
      <g transform="translate(256, 256)">
        <path d="M-40 -20 C-40 -60, -20 -80, 0 -80 C20 -80, 40 -60, 40 -20 C40 20, 20 60, 0 60 C-20 60, -40 20, -40 -20 Z" fill="#FFFFFF"/>
        <path d="M5 -75 C15 -85, 25 -80, 30 -70 C25 -75, 15 -75, 5 -75 Z" fill="#22C55E"/>
        <rect x="-2" y="-85" width="4" height="10" fill="#8B5CF6" rx="2"/>
        <circle cx="50" cy="30" r="25" fill="#FFFFFF" opacity="0.9"/>
        <text x="50" y="35" text-anchor="middle" fill="#059669" font-family="Arial, sans-serif" font-size="16" font-weight="bold">NP</text>
      </g>
    </svg>